<mxfile host="65bd71144e">
    <diagram id="CINxY7s1XdfWSX6-NmDz" name="Page-1">
        <mxGraphModel dx="746" dy="466" grid="1" gridSize="10" guides="1" tooltips="1" connect="1" arrows="1" fold="1" page="1" pageScale="1" pageWidth="850" pageHeight="1100" math="0" shadow="0">
            <root>
                <mxCell id="0"/>
                <mxCell id="1" parent="0"/>
                <mxCell id="6" style="edgeStyle=none;html=1;exitX=0.5;exitY=1;exitDx=0;exitDy=0;endArrow=none;endFill=0;dashed=1;" parent="1" source="2" edge="1">
                    <mxGeometry relative="1" as="geometry">
                        <mxPoint x="100" y="1090" as="targetPoint"/>
                    </mxGeometry>
                </mxCell>
                <mxCell id="2" value="User" style="html=1;" parent="1" vertex="1">
                    <mxGeometry x="40" y="80" width="110" height="50" as="geometry"/>
                </mxCell>
                <mxCell id="4" value="Backend" style="html=1;" parent="1" vertex="1">
                    <mxGeometry x="440" y="80" width="110" height="50" as="geometry"/>
                </mxCell>
                <mxCell id="5" value="Database" style="html=1;" parent="1" vertex="1">
                    <mxGeometry x="640" y="80" width="110" height="50" as="geometry"/>
                </mxCell>
                <mxCell id="11" value="" style="edgeStyle=none;html=1;dashed=1;endArrow=none;endFill=0;" parent="1" source="9" target="10" edge="1">
                    <mxGeometry relative="1" as="geometry"/>
                </mxCell>
                <mxCell id="9" value="" style="html=1;points=[];perimeter=orthogonalPerimeter;" parent="1" vertex="1">
                    <mxGeometry x="295" y="210" width="10" height="180" as="geometry"/>
                </mxCell>
                <mxCell id="10" value="&lt;span style=&quot;&quot;&gt;PSX Simulator&lt;br&gt;(Frontend)&lt;br&gt;&lt;/span&gt;" style="whiteSpace=wrap;html=1;fillColor=rgb(24, 20, 29);" parent="1" vertex="1">
                    <mxGeometry x="240" y="80" width="120" height="50" as="geometry"/>
                </mxCell>
                <mxCell id="12" value="Enter Login Details" style="endArrow=block;endFill=1;html=1;align=center;verticalAlign=top;entryX=0.2;entryY=-0.011;entryDx=0;entryDy=0;entryPerimeter=0;" parent="1" target="9" edge="1">
                    <mxGeometry x="-0.0868" y="-9" relative="1" as="geometry">
                        <mxPoint x="100" y="210" as="sourcePoint"/>
                        <mxPoint x="270" y="210" as="targetPoint"/>
                        <mxPoint x="-1" as="offset"/>
                    </mxGeometry>
                </mxCell>
                <mxCell id="21" value="" style="edgeStyle=none;html=1;startArrow=none;startFill=0;endArrow=none;endFill=0;dashed=1;" parent="1" source="15" target="4" edge="1">
                    <mxGeometry relative="1" as="geometry"/>
                </mxCell>
                <mxCell id="15" value="" style="html=1;points=[];perimeter=orthogonalPerimeter;" parent="1" vertex="1">
                    <mxGeometry x="490" y="240" width="10" height="120" as="geometry"/>
                </mxCell>
                <mxCell id="16" value="Send Login Details" style="html=1;verticalAlign=top;startArrow=none;endArrow=block;startSize=8;startFill=0;snapToPoint=0;exitX=1;exitY=0.186;exitDx=0;exitDy=0;exitPerimeter=0;" parent="1" source="9" target="15" edge="1">
                    <mxGeometry y="-10" relative="1" as="geometry">
                        <mxPoint x="310" y="250" as="sourcePoint"/>
                        <mxPoint as="offset"/>
                    </mxGeometry>
                </mxCell>
                <mxCell id="23" value="" style="edgeStyle=none;html=1;dashed=1;startArrow=none;startFill=0;endArrow=none;endFill=0;entryX=0.5;entryY=1;entryDx=0;entryDy=0;" parent="1" target="5" edge="1">
                    <mxGeometry relative="1" as="geometry">
                        <mxPoint x="695" y="280" as="sourcePoint"/>
                        <mxPoint x="695" y="200" as="targetPoint"/>
                    </mxGeometry>
                </mxCell>
                <mxCell id="24" value="" style="html=1;points=[];perimeter=orthogonalPerimeter;" parent="1" vertex="1">
                    <mxGeometry x="690" y="265" width="10" height="50" as="geometry"/>
                </mxCell>
                <mxCell id="25" value="Validate User" style="html=1;verticalAlign=bottom;endArrow=block;entryX=0;entryY=0;exitX=1.1;exitY=0.205;exitDx=0;exitDy=0;exitPerimeter=0;" parent="1" source="15" target="24" edge="1">
                    <mxGeometry relative="1" as="geometry">
                        <mxPoint x="620" y="280" as="sourcePoint"/>
                    </mxGeometry>
                </mxCell>
                <mxCell id="26" value="Return User Info" style="html=1;verticalAlign=bottom;endArrow=open;dashed=1;endSize=8;exitX=0.3;exitY=1;entryX=1.3;entryY=0.605;entryDx=0;entryDy=0;entryPerimeter=0;exitDx=0;exitDy=0;exitPerimeter=0;" parent="1" source="24" target="15" edge="1">
                    <mxGeometry relative="1" as="geometry">
                        <mxPoint x="503" y="357" as="targetPoint"/>
                        <mxPoint x="690" y="356" as="sourcePoint"/>
                    </mxGeometry>
                </mxCell>
                <mxCell id="27" value="Return JWT Token" style="html=1;verticalAlign=bottom;endArrow=open;dashed=1;endSize=8;exitX=-0.2;exitY=1.008;exitDx=0;exitDy=0;exitPerimeter=0;entryX=1.1;entryY=0.839;entryDx=0;entryDy=0;entryPerimeter=0;" parent="1" source="15" target="9" edge="1">
                    <mxGeometry relative="1" as="geometry">
                        <mxPoint x="306" y="360" as="targetPoint"/>
                        <mxPoint x="490" y="440" as="sourcePoint"/>
                    </mxGeometry>
                </mxCell>
                <mxCell id="28" value="Store Token and Redirect" style="html=1;verticalAlign=bottom;endArrow=open;dashed=1;endSize=8;exitX=0.3;exitY=1;exitDx=0;exitDy=0;exitPerimeter=0;" parent="1" edge="1">
                    <mxGeometry relative="1" as="geometry">
                        <mxPoint x="96" y="391" as="targetPoint"/>
                        <mxPoint x="295" y="390" as="sourcePoint"/>
                    </mxGeometry>
                </mxCell>
                <mxCell id="57" value="" style="edgeStyle=none;html=1;startArrow=none;startFill=0;endArrow=none;endFill=0;" parent="1" source="36" target="9" edge="1">
                    <mxGeometry relative="1" as="geometry"/>
                </mxCell>
                <mxCell id="36" value="" style="html=1;points=[];perimeter=orthogonalPerimeter;" parent="1" vertex="1">
                    <mxGeometry x="295" y="440" width="10" height="180" as="geometry"/>
                </mxCell>
                <mxCell id="58" value="" style="edgeStyle=none;html=1;startArrow=none;startFill=0;endArrow=none;endFill=0;" parent="1" source="37" target="15" edge="1">
                    <mxGeometry relative="1" as="geometry"/>
                </mxCell>
                <mxCell id="59" value="" style="edgeStyle=none;html=1;startArrow=none;startFill=0;endArrow=none;endFill=0;" parent="1" source="37" target="44" edge="1">
                    <mxGeometry relative="1" as="geometry"/>
                </mxCell>
                <mxCell id="37" value="" style="html=1;points=[];perimeter=orthogonalPerimeter;" parent="1" vertex="1">
                    <mxGeometry x="490" y="470" width="10" height="120" as="geometry"/>
                </mxCell>
                <mxCell id="38" value="Send Buy Request" style="html=1;verticalAlign=top;startArrow=none;endArrow=block;startSize=8;startFill=0;snapToPoint=0;exitX=1;exitY=0.186;exitDx=0;exitDy=0;exitPerimeter=0;" parent="1" source="36" target="37" edge="1">
                    <mxGeometry y="-10" relative="1" as="geometry">
                        <mxPoint x="310" y="480" as="sourcePoint"/>
                        <mxPoint as="offset"/>
                    </mxGeometry>
                </mxCell>
                <mxCell id="64" style="edgeStyle=none;html=1;entryX=0.4;entryY=1.06;entryDx=0;entryDy=0;entryPerimeter=0;startArrow=none;startFill=0;endArrow=none;endFill=0;" parent="1" source="39" target="24" edge="1">
                    <mxGeometry relative="1" as="geometry"/>
                </mxCell>
                <mxCell id="39" value="" style="html=1;points=[];perimeter=orthogonalPerimeter;" parent="1" vertex="1">
                    <mxGeometry x="690" y="495" width="10" height="50" as="geometry"/>
                </mxCell>
                <mxCell id="40" value="Check Balance" style="html=1;verticalAlign=bottom;endArrow=block;entryX=0;entryY=0;exitX=1.1;exitY=0.205;exitDx=0;exitDy=0;exitPerimeter=0;" parent="1" source="37" target="39" edge="1">
                    <mxGeometry relative="1" as="geometry">
                        <mxPoint x="620" y="510" as="sourcePoint"/>
                    </mxGeometry>
                </mxCell>
                <mxCell id="41" value="Update Balance and Assets" style="html=1;verticalAlign=bottom;endArrow=open;dashed=1;endSize=8;exitX=0.3;exitY=1;entryX=1.3;entryY=0.605;entryDx=0;entryDy=0;entryPerimeter=0;exitDx=0;exitDy=0;exitPerimeter=0;" parent="1" source="39" target="37" edge="1">
                    <mxGeometry relative="1" as="geometry">
                        <mxPoint x="503" y="587" as="targetPoint"/>
                        <mxPoint x="690" y="586" as="sourcePoint"/>
                    </mxGeometry>
                </mxCell>
                <mxCell id="42" value="Confirm Purchase" style="html=1;verticalAlign=bottom;endArrow=open;dashed=1;endSize=8;exitX=-0.2;exitY=1.008;exitDx=0;exitDy=0;exitPerimeter=0;entryX=1.1;entryY=0.839;entryDx=0;entryDy=0;entryPerimeter=0;" parent="1" source="37" target="36" edge="1">
                    <mxGeometry relative="1" as="geometry">
                        <mxPoint x="306" y="590" as="targetPoint"/>
                        <mxPoint x="490" y="670" as="sourcePoint"/>
                    </mxGeometry>
                </mxCell>
                <mxCell id="62" value="" style="edgeStyle=none;html=1;startArrow=none;startFill=0;endArrow=none;endFill=0;" parent="1" source="43" target="36" edge="1">
                    <mxGeometry relative="1" as="geometry"/>
                </mxCell>
                <mxCell id="43" value="" style="html=1;points=[];perimeter=orthogonalPerimeter;" parent="1" vertex="1">
                    <mxGeometry x="295" y="670" width="10" height="180" as="geometry"/>
                </mxCell>
                <mxCell id="60" value="" style="edgeStyle=none;html=1;startArrow=none;startFill=0;endArrow=none;endFill=0;" parent="1" source="44" target="51" edge="1">
                    <mxGeometry relative="1" as="geometry"/>
                </mxCell>
                <mxCell id="44" value="" style="html=1;points=[];perimeter=orthogonalPerimeter;" parent="1" vertex="1">
                    <mxGeometry x="490" y="700" width="10" height="120" as="geometry"/>
                </mxCell>
                <mxCell id="45" value="Send Add/Remove Request" style="html=1;verticalAlign=top;startArrow=none;endArrow=block;startSize=8;startFill=0;snapToPoint=0;exitX=1;exitY=0.186;exitDx=0;exitDy=0;exitPerimeter=0;" parent="1" source="43" target="44" edge="1">
                    <mxGeometry y="-10" relative="1" as="geometry">
                        <mxPoint x="310" y="710" as="sourcePoint"/>
                        <mxPoint as="offset"/>
                    </mxGeometry>
                </mxCell>
                <mxCell id="65" style="edgeStyle=none;html=1;entryX=0.5;entryY=1.02;entryDx=0;entryDy=0;entryPerimeter=0;startArrow=none;startFill=0;endArrow=none;endFill=0;" parent="1" source="46" target="39" edge="1">
                    <mxGeometry relative="1" as="geometry"/>
                </mxCell>
                <mxCell id="66" style="edgeStyle=none;html=1;entryX=0.4;entryY=0.04;entryDx=0;entryDy=0;entryPerimeter=0;startArrow=none;startFill=0;endArrow=none;endFill=0;" parent="1" source="46" target="53" edge="1">
                    <mxGeometry relative="1" as="geometry"/>
                </mxCell>
                <mxCell id="46" value="" style="html=1;points=[];perimeter=orthogonalPerimeter;" parent="1" vertex="1">
                    <mxGeometry x="690" y="725" width="10" height="50" as="geometry"/>
                </mxCell>
                <mxCell id="47" value=" Add/Remove to Watchlist" style="html=1;verticalAlign=bottom;endArrow=block;entryX=0;entryY=0;exitX=1.1;exitY=0.205;exitDx=0;exitDy=0;exitPerimeter=0;" parent="1" source="44" target="46" edge="1">
                    <mxGeometry relative="1" as="geometry">
                        <mxPoint x="620" y="740" as="sourcePoint"/>
                    </mxGeometry>
                </mxCell>
                <mxCell id="48" value=" Confirm Add/Remove" style="html=1;verticalAlign=bottom;endArrow=open;dashed=1;endSize=8;exitX=0.3;exitY=1;entryX=1.4;entryY=0.625;entryDx=0;entryDy=0;entryPerimeter=0;exitDx=0;exitDy=0;exitPerimeter=0;" parent="1" source="46" target="44" edge="1">
                    <mxGeometry relative="1" as="geometry">
                        <mxPoint x="503" y="817" as="targetPoint"/>
                        <mxPoint x="690" y="816" as="sourcePoint"/>
                    </mxGeometry>
                </mxCell>
                <mxCell id="49" value="Return Confirmation" style="html=1;verticalAlign=bottom;endArrow=open;dashed=1;endSize=8;exitX=-0.2;exitY=1.008;exitDx=0;exitDy=0;exitPerimeter=0;entryX=1.1;entryY=0.839;entryDx=0;entryDy=0;entryPerimeter=0;" parent="1" source="44" target="43" edge="1">
                    <mxGeometry relative="1" as="geometry">
                        <mxPoint x="306" y="820" as="targetPoint"/>
                        <mxPoint x="490" y="900" as="sourcePoint"/>
                    </mxGeometry>
                </mxCell>
                <mxCell id="61" value="" style="edgeStyle=none;html=1;startArrow=none;startFill=0;endArrow=none;endFill=0;" parent="1" source="50" target="43" edge="1">
                    <mxGeometry relative="1" as="geometry"/>
                </mxCell>
                <mxCell id="50" value="" style="html=1;points=[];perimeter=orthogonalPerimeter;" parent="1" vertex="1">
                    <mxGeometry x="295" y="890" width="10" height="180" as="geometry"/>
                </mxCell>
                <mxCell id="51" value="" style="html=1;points=[];perimeter=orthogonalPerimeter;" parent="1" vertex="1">
                    <mxGeometry x="490" y="920" width="10" height="120" as="geometry"/>
                </mxCell>
                <mxCell id="52" value="Fetch Portfolio Data" style="html=1;verticalAlign=top;startArrow=none;endArrow=block;startSize=8;startFill=0;snapToPoint=0;exitX=1;exitY=0.186;exitDx=0;exitDy=0;exitPerimeter=0;" parent="1" source="50" target="51" edge="1">
                    <mxGeometry y="-10" relative="1" as="geometry">
                        <mxPoint x="310" y="930" as="sourcePoint"/>
                        <mxPoint as="offset"/>
                    </mxGeometry>
                </mxCell>
                <mxCell id="53" value="" style="html=1;points=[];perimeter=orthogonalPerimeter;" parent="1" vertex="1">
                    <mxGeometry x="690" y="945" width="10" height="50" as="geometry"/>
                </mxCell>
                <mxCell id="54" value="Retrieve Portfolio" style="html=1;verticalAlign=bottom;endArrow=block;entryX=0;entryY=0;exitX=1.1;exitY=0.205;exitDx=0;exitDy=0;exitPerimeter=0;" parent="1" source="51" target="53" edge="1">
                    <mxGeometry relative="1" as="geometry">
                        <mxPoint x="620" y="960" as="sourcePoint"/>
                    </mxGeometry>
                </mxCell>
                <mxCell id="55" value="Return Portfolio Data" style="html=1;verticalAlign=bottom;endArrow=open;dashed=1;endSize=8;exitX=0.3;exitY=1;entryX=1.3;entryY=0.605;entryDx=0;entryDy=0;entryPerimeter=0;exitDx=0;exitDy=0;exitPerimeter=0;" parent="1" source="53" target="51" edge="1">
                    <mxGeometry relative="1" as="geometry">
                        <mxPoint x="503" y="1037" as="targetPoint"/>
                        <mxPoint x="690" y="1036" as="sourcePoint"/>
                    </mxGeometry>
                </mxCell>
                <mxCell id="56" value="Return Portfolio Data" style="html=1;verticalAlign=bottom;endArrow=open;dashed=1;endSize=8;exitX=-0.2;exitY=1.008;exitDx=0;exitDy=0;exitPerimeter=0;entryX=1.1;entryY=0.839;entryDx=0;entryDy=0;entryPerimeter=0;" parent="1" source="51" target="50" edge="1">
                    <mxGeometry relative="1" as="geometry">
                        <mxPoint x="306" y="1040" as="targetPoint"/>
                        <mxPoint x="490" y="1120" as="sourcePoint"/>
                    </mxGeometry>
                </mxCell>
                <mxCell id="67" value="&lt;div style=&quot;&quot;&gt;Select Stock and Enter&amp;nbsp;Quantity&lt;/div&gt;" style="endArrow=block;endFill=1;html=1;align=center;verticalAlign=top;entryX=0.2;entryY=-0.011;entryDx=0;entryDy=0;entryPerimeter=0;" parent="1" edge="1">
                    <mxGeometry x="-0.0868" y="-9" relative="1" as="geometry">
                        <mxPoint x="98" y="441.98" as="sourcePoint"/>
                        <mxPoint x="295" y="440" as="targetPoint"/>
                        <mxPoint x="-1" as="offset"/>
                    </mxGeometry>
                </mxCell>
                <mxCell id="68" value="Update UI" style="html=1;verticalAlign=bottom;endArrow=open;dashed=1;endSize=8;exitX=0.3;exitY=1;exitDx=0;exitDy=0;exitPerimeter=0;" parent="1" edge="1">
                    <mxGeometry relative="1" as="geometry">
                        <mxPoint x="96" y="621" as="targetPoint"/>
                        <mxPoint x="295" y="620" as="sourcePoint"/>
                    </mxGeometry>
                </mxCell>
                <mxCell id="69" value="Update Watchlist Display" style="html=1;verticalAlign=bottom;endArrow=open;dashed=1;endSize=8;exitX=0.3;exitY=1;exitDx=0;exitDy=0;exitPerimeter=0;" parent="1" edge="1">
                    <mxGeometry relative="1" as="geometry">
                        <mxPoint x="96" y="850" as="targetPoint"/>
                        <mxPoint x="295" y="849" as="sourcePoint"/>
                    </mxGeometry>
                </mxCell>
                <mxCell id="70" value="Enter Stock Symbol" style="endArrow=block;endFill=1;html=1;align=center;verticalAlign=top;entryX=0.2;entryY=-0.011;entryDx=0;entryDy=0;entryPerimeter=0;" parent="1" edge="1">
                    <mxGeometry x="-0.0868" y="-9" relative="1" as="geometry">
                        <mxPoint x="98" y="670.98" as="sourcePoint"/>
                        <mxPoint x="295" y="669" as="targetPoint"/>
                        <mxPoint x="-1" as="offset"/>
                    </mxGeometry>
                </mxCell>
                <mxCell id="71" value=" Display Portfolio" style="html=1;verticalAlign=bottom;endArrow=open;dashed=1;endSize=8;exitX=0.3;exitY=1;exitDx=0;exitDy=0;exitPerimeter=0;" parent="1" edge="1">
                    <mxGeometry relative="1" as="geometry">
                        <mxPoint x="96" y="1070" as="targetPoint"/>
                        <mxPoint x="295" y="1069" as="sourcePoint"/>
                    </mxGeometry>
                </mxCell>
                <mxCell id="72" value="Request Portfolio View" style="endArrow=block;endFill=1;html=1;align=center;verticalAlign=top;entryX=0.2;entryY=-0.011;entryDx=0;entryDy=0;entryPerimeter=0;" parent="1" edge="1">
                    <mxGeometry x="-0.0868" y="-9" relative="1" as="geometry">
                        <mxPoint x="98" y="890.98" as="sourcePoint"/>
                        <mxPoint x="295" y="889" as="targetPoint"/>
                        <mxPoint x="-1" as="offset"/>
                    </mxGeometry>
                </mxCell>
                <mxCell id="73" value="01" style="text;html=1;strokeColor=none;fillColor=none;align=center;verticalAlign=middle;whiteSpace=wrap;rounded=0;" vertex="1" parent="1">
                    <mxGeometry x="90" y="186" width="60" height="30" as="geometry"/>
                </mxCell>
                <mxCell id="74" value="02" style="text;html=1;strokeColor=none;fillColor=none;align=center;verticalAlign=middle;whiteSpace=wrap;rounded=0;" vertex="1" parent="1">
                    <mxGeometry x="90" y="420" width="60" height="30" as="geometry"/>
                </mxCell>
                <mxCell id="77" value="03" style="text;html=1;strokeColor=none;fillColor=none;align=center;verticalAlign=middle;whiteSpace=wrap;rounded=0;" vertex="1" parent="1">
                    <mxGeometry x="90" y="650" width="60" height="30" as="geometry"/>
                </mxCell>
                <mxCell id="78" value="04" style="text;html=1;strokeColor=none;fillColor=none;align=center;verticalAlign=middle;whiteSpace=wrap;rounded=0;" vertex="1" parent="1">
                    <mxGeometry x="90" y="867" width="60" height="30" as="geometry"/>
                </mxCell>
            </root>
        </mxGraphModel>
    </diagram>
</mxfile>